<svg width="53" height="53" viewBox="0 0 53 53" fill="none" xmlns="http://www.w3.org/2000/svg">
<g clip-path="url(#clip0_36_2594)">
<path d="M10.4896 28.1412C13.545 26.1968 15.7671 24.808 18.1282 23.4192C23.6835 20.3637 29.1 17.3083 34.5164 13.9751C36.5997 12.7251 37.1552 13.0029 37.1552 15.5028C37.0163 17.3083 36.7386 18.9749 36.4608 20.7804C35.6275 25.9191 34.6553 31.0578 33.822 36.1965C33.5442 37.7242 32.9887 38.1408 31.5999 37.3075C30.9055 36.8909 30.211 36.752 29.5166 36.4742C25.9056 34.9465 25.489 34.9465 22.8502 37.8631C22.2947 38.4186 22.1558 39.2519 21.0447 39.3908C20.6281 36.752 20.0725 34.391 22.0169 32.03C23.9613 29.5301 25.7668 27.169 27.85 24.6691C28.4056 23.9747 28.8222 23.2803 29.1 22.447C25.9057 24.5302 22.7113 26.7524 20.0725 29.53C19.1004 30.6411 18.2671 30.78 16.8782 30.2245C15.0727 29.53 13.1284 28.9745 10.4896 28.1412Z" fill="#F0F0F0"/>
<path fill-rule="evenodd" clip-rule="evenodd" d="M26.5 50.7917C39.9159 50.7917 50.7917 39.9159 50.7917 26.5C50.7917 13.0841 39.9159 2.20833 26.5 2.20833C13.0841 2.20833 2.20833 13.0841 2.20833 26.5C2.20833 39.9159 13.0841 50.7917 26.5 50.7917ZM26.5 53C41.1355 53 53 41.1355 53 26.5C53 11.8645 41.1355 0 26.5 0C11.8645 0 0 11.8645 0 26.5C0 41.1355 11.8645 53 26.5 53Z" fill="#F0F0F0"/>
</g>
<defs>
<clipPath id="clip0_36_2594">
<rect width="53" height="53" fill="white"/>
</clipPath>
</defs>
</svg>
