<svg width="53" height="53" viewBox="0 0 53 53" fill="none" xmlns="http://www.w3.org/2000/svg">
<g clip-path="url(#clip0_36_2588)">
<path fill-rule="evenodd" clip-rule="evenodd" d="M26.5 50.7917C39.9159 50.7917 50.7917 39.9159 50.7917 26.5C50.7917 13.0841 39.9159 2.20833 26.5 2.20833C13.0841 2.20833 2.20833 13.0841 2.20833 26.5C2.20833 39.9159 13.0841 50.7917 26.5 50.7917ZM26.5 53C41.1355 53 53 41.1355 53 26.5C53 11.8645 41.1355 0 26.5 0C11.8645 0 0 11.8645 0 26.5C0 41.1355 11.8645 53 26.5 53Z" fill="#F0F0F0"/>
<path d="M27.4349 39.5264C26.1471 39.3976 24.7304 39.5264 23.4426 39.0112C21.382 38.1097 19.3214 38.1097 17.2609 39.3976C16.7457 39.6551 16.1018 40.0415 15.5867 39.3976C15.2003 39.0112 15.4579 38.3673 15.5867 37.9809C16.7458 35.4052 16.1018 33.2159 15.0715 30.6402C13.011 25.6176 13.2685 20.7237 17.2609 16.6026C21.2532 12.6103 26.2758 11.9664 31.556 13.383C33.2302 13.8981 34.6469 14.9284 35.9347 16.2162C42.1164 22.7843 42.374 33.8598 32.8439 38.4961C31.0409 39.3976 29.2379 39.3976 27.4349 39.5264ZM17.2609 37.8522C19.9654 35.7916 22.5411 37.2082 25.1168 37.5946C28.8515 38.1097 32.4575 37.9809 35.5484 35.1477C38.768 32.0568 39.6695 26.7766 38.1241 22.5267C36.1923 17.2465 31.8136 14.4133 26.9198 14.4133C21.2532 14.4133 15.3291 19.0495 15.5867 24.5873C15.7155 26.7766 15.8443 28.966 17.0033 30.8977C18.2912 32.9583 18.5487 35.0189 17.2609 37.8522Z" fill="#F0F0F0"/>
<path d="M28.2076 29.0948C28.3364 28.966 28.594 28.8372 28.7228 28.7085C29.2379 27.9357 29.4955 26.9055 30.7833 27.163C31.9424 27.5494 32.9727 28.4509 33.359 29.6099C33.7454 30.769 32.9727 31.5417 32.1999 32.1856C30.5257 33.4735 28.8515 33.0871 27.3061 32.3144C23.8289 30.3827 21.8971 27.163 20.7381 23.4283C20.3517 22.0116 20.8669 20.8526 22.2835 20.0798C23.185 19.5647 23.9577 19.5647 24.4728 20.3374C25.2455 21.3677 26.9198 22.2692 25.5031 23.9434C24.8592 24.7161 25.1168 25.4888 25.6319 26.1328C26.2758 27.2918 26.9198 28.4509 28.2076 29.0948Z" fill="#F0F0F0"/>
</g>
<defs>
<clipPath id="clip0_36_2588">
<rect width="53" height="53" fill="white"/>
</clipPath>
</defs>
</svg>
